<?xml version="1.0" encoding="utf-8"?>
<!-- Generated by IcoMoon.io -->
<!DOCTYPE svg PUBLIC "-//W3C//DTD SVG 1.1//EN" "http://www.w3.org/Graphics/SVG/1.1/DTD/svg11.dtd">
<svg version="1.1" id="Layer_1" xmlns="http://www.w3.org/2000/svg" xmlns:xlink="http://www.w3.org/1999/xlink" x="0px" y="0px"
   width="5px" height="7.5px" viewBox="0 0 5 7.5" enable-background="new 0 0 5 7.5" xml:space="preserve">
<path fill="#ffffff" d="M4.625,3H4.5V1.5C4.5,0.673,3.827,0,3,0H2C1.173,0,0.5,0.673,0.5,1.5V3H0.375C0.169,3,0,3.169,0,3.375v3.75
  C0,7.331,0.169,7.5,0.375,7.5h4.25C4.831,7.5,5,7.331,5,7.125v-3.75C5,3.169,4.831,3,4.625,3z M1.5,1.5C1.5,1.225,1.725,1,2,1h1
  c0.275,0,0.5,0.225,0.5,0.5V3h-2V1.5z"/>
</svg>
